<svg width="26" height="24" viewBox="0 0 26 24" fill="none" xmlns="http://www.w3.org/2000/svg">
<path d="M13.4126 13.5C12.6395 13.5 11.8838 13.2801 11.241 12.868C10.5983 12.456 10.0973 11.8703 9.80144 11.1851C9.5056 10.4998 9.42819 9.74584 9.57901 9.01841C9.72983 8.29098 10.1021 7.6228 10.6487 7.09835C11.1954 6.5739 11.8918 6.21675 12.65 6.07206C13.4082 5.92736 14.1942 6.00162 14.9084 6.28545C15.6226 6.56928 16.233 7.04993 16.6625 7.66661C17.092 8.2833 17.3213 9.00832 17.3213 9.75C17.32 10.7442 16.9078 11.6973 16.1751 12.4003C15.4423 13.1033 14.4488 13.4988 13.4126 13.5ZM13.4126 7.5C12.9487 7.5 12.4953 7.63196 12.1097 7.8792C11.724 8.12643 11.4234 8.47783 11.2459 8.88896C11.0684 9.3001 11.022 9.7525 11.1124 10.189C11.2029 10.6254 11.4263 11.0263 11.7543 11.341C12.0823 11.6557 12.5001 11.87 12.9551 11.9568C13.41 12.0436 13.8815 11.999 14.3101 11.8287C14.7386 11.6584 15.1049 11.37 15.3626 11C15.6202 10.63 15.7578 10.195 15.7578 9.75C15.7572 9.15345 15.5099 8.5815 15.0702 8.15967C14.6305 7.73784 14.0344 7.5006 13.4126 7.5Z" fill="#002678"/>
<path d="M13.4126 22.5L6.81785 15.0382C6.72622 14.9262 6.63553 14.8135 6.54581 14.7C5.41988 13.276 4.81139 11.5373 4.81348 9.75C4.81348 7.56196 5.71945 5.46354 7.3321 3.91637C8.94474 2.36919 11.132 1.5 13.4126 1.5C15.6932 1.5 17.8804 2.36919 19.493 3.91637C21.1057 5.46354 22.0117 7.56196 22.0117 9.75C22.0135 11.5365 21.4053 13.2743 20.2801 14.6978L20.2793 14.7C20.2793 14.7 20.0448 14.9955 20.0096 15.0353L13.4126 22.5ZM7.79424 13.7963C7.79424 13.7963 7.97638 14.0272 8.01781 14.0767L13.4126 20.181L18.8144 14.0685C18.8488 14.0272 19.0317 13.7948 19.0325 13.794C19.9527 12.6309 20.4501 11.2103 20.4482 9.75C20.4482 7.95979 19.7069 6.2429 18.3875 4.97703C17.0681 3.71116 15.2785 3 13.4126 3C11.5466 3 9.75707 3.71116 8.43764 4.97703C7.1182 6.2429 6.37695 7.95979 6.37695 9.75C6.37502 11.2112 6.87292 12.6327 7.79424 13.7963Z" fill="#002678"/>
</svg>
