<svg width="283" height="283" viewBox="0 0 283 283" fill="none" xmlns="http://www.w3.org/2000/svg">
<path d="M199.683 12.1198C199.353 11.9698 199.023 11.8198 198.693 11.6798C195.943 10.4698 192.733 11.0498 190.563 13.1298L11.2531 184.58C9.08307 186.66 8.34299 189.84 9.42299 192.65C9.55299 192.99 9.68301 193.33 9.82301 193.67L199.693 12.1298L199.683 12.1198Z" fill="url(#paint0_linear_185_6811)"/>
<path d="M217.174 21.6L217.124 21.5699C214.304 19.7799 210.624 20.14 208.214 22.45L19.7039 202.69C17.2839 205 16.7538 208.66 18.4138 211.57L18.4438 211.62L217.174 21.61V21.6Z" fill="url(#paint1_linear_185_6811)"/>
<path d="M232.654 33.0131C231.224 31.8031 229.784 30.6031 228.304 29.4531L25.7539 223.113C26.8339 224.643 27.9639 226.143 29.0939 227.633L232.644 33.0032L232.654 33.0131Z" fill="url(#paint2_linear_185_6811)"/>
<path d="M157.064 0.467955C155.694 0.317955 154.314 0.187941 152.934 0.0779408C150.844 -0.0920592 148.774 0.677989 147.264 2.12799L2.3139 140.718C0.793903 142.168 -0.0660336 144.198 0.00396639 146.298C0.0539664 147.688 0.113918 149.068 0.203918 150.448L157.074 0.457946L157.064 0.467955Z" fill="url(#paint3_linear_185_6811)"/>
<path d="M95.0634 7.33813C90.6234 8.87813 86.2833 10.6482 82.0533 12.6082C81.2933 12.9582 80.5934 13.4381 79.9934 14.0181L17.3234 73.9481C16.7134 74.5281 16.2034 75.1981 15.8134 75.9481C13.6534 80.0881 11.6934 84.3481 9.94336 88.7181L95.0634 7.32812V7.33813Z" fill="url(#paint4_linear_185_6811)"/>
<path d="M179.854 4.87281C179.074 4.65281 178.294 4.44279 177.504 4.23279C175.014 3.58279 172.354 4.32278 170.494 6.09278L5.17441 164.163C3.31441 165.943 2.45447 168.573 2.98447 171.093C3.15447 171.883 3.32437 172.683 3.51437 173.473L179.844 4.87281H179.854Z" fill="url(#paint5_linear_185_6811)"/>
<path d="M130.154 0C127.874 0.18 125.624 0.42998 123.384 0.72998C121.814 0.93998 120.364 1.65 119.214 2.75L4.2439 112.68C3.1039 113.77 2.31382 115.2 2.04382 116.76C1.64382 118.99 1.29391 121.23 1.00391 123.5L130.164 0.00994873L130.154 0Z" fill="url(#paint6_linear_185_6811)"/>
<path d="M258.074 61.1035C257.004 59.5535 255.914 58.0334 254.784 56.5234L51.5039 250.893C52.9539 252.093 54.4138 253.263 55.9138 254.393L258.074 61.1035Z" fill="url(#paint7_linear_185_6811)"/>
<path d="M278.194 172.878C279.314 171.808 280.084 170.427 280.384 168.907C280.834 166.607 281.224 164.277 281.564 161.938L155.344 282.617C157.694 282.387 160.034 282.108 162.344 281.768C163.874 281.548 165.284 280.828 166.404 279.758L278.194 172.867V172.878Z" fill="url(#paint8_linear_185_6811)"/>
<path d="M263.174 213.437C263.724 212.917 264.194 212.317 264.564 211.657C267.104 207.187 269.394 202.557 271.444 197.797L191.574 274.167C196.414 272.327 201.134 270.257 205.714 267.927C206.384 267.587 207.004 267.137 207.544 266.617L263.174 213.427V213.437Z" fill="url(#paint9_linear_185_6811)"/>
<path d="M280.674 144.298C282.164 142.868 283.024 140.888 282.984 138.828C282.954 137.388 282.914 135.948 282.844 134.508L127.934 282.628C129.364 282.768 130.794 282.878 132.234 282.978C134.294 283.118 136.304 282.348 137.804 280.918L280.684 144.308L280.674 144.298Z" fill="url(#paint10_linear_185_6811)"/>
<path d="M272.264 99.9438C274.404 97.9038 275.184 94.7638 274.144 91.9938C274.004 91.6138 273.854 91.2237 273.704 90.8438L84.8145 271.444C85.1945 271.604 85.5645 271.774 85.9445 271.934C88.6545 273.104 91.8245 272.464 93.9545 270.424L272.255 99.9438H272.264Z" fill="url(#paint11_linear_185_6811)"/>
<path d="M263.994 81.6509C266.394 79.3609 266.944 75.7309 265.334 72.8209L265.274 72.7109L67.1543 262.141C70.0443 263.931 73.7644 263.541 76.2144 261.191L263.994 81.6509Z" fill="url(#paint12_linear_185_6811)"/>
<path d="M41.5948 241.879L246.265 46.1794C245.015 44.7994 243.745 43.4394 242.445 42.1094L37.7148 237.859C38.9748 239.229 40.2748 240.559 41.5948 241.879Z" fill="url(#paint13_linear_185_6811)"/>
<path d="M278.093 120.557C279.933 118.797 280.793 116.217 280.303 113.717C280.133 112.887 279.963 112.057 279.783 111.227L104.873 278.467C105.693 278.687 106.513 278.897 107.333 279.107C109.803 279.727 112.423 278.977 114.253 277.217L278.093 120.567V120.557Z" fill="url(#paint14_linear_185_6811)"/>
<defs>
<linearGradient id="paint0_linear_185_6811" x1="103.09" y1="8.56055" x2="103.153" y2="190.751" gradientUnits="userSpaceOnUse">
<stop stop-color="white"/>
<stop offset="1" stop-color="white" stop-opacity="0"/>
</linearGradient>
<linearGradient id="paint1_linear_185_6811" x1="116.121" y1="17.9091" x2="116.187" y2="208.645" gradientUnits="userSpaceOnUse">
<stop stop-color="white"/>
<stop offset="1" stop-color="white" stop-opacity="0"/>
</linearGradient>
<linearGradient id="paint2_linear_185_6811" x1="128.028" y1="26.8945" x2="128.097" y2="224.614" gradientUnits="userSpaceOnUse">
<stop stop-color="white"/>
<stop offset="1" stop-color="white" stop-opacity="0"/>
</linearGradient>
<linearGradient id="paint3_linear_185_6811" x1="77.2627" y1="-2.38331" x2="77.3151" y2="147.669" gradientUnits="userSpaceOnUse">
<stop stop-color="white"/>
<stop offset="1" stop-color="white" stop-opacity="0"/>
</linearGradient>
<linearGradient id="paint4_linear_185_6811" x1="51.2103" y1="4.92036" x2="51.2387" y2="86.1176" gradientUnits="userSpaceOnUse">
<stop stop-color="white"/>
<stop offset="1" stop-color="white" stop-opacity="0"/>
</linearGradient>
<linearGradient id="paint5_linear_185_6811" x1="90.1094" y1="1.54625" x2="90.1685" y2="170.624" gradientUnits="userSpaceOnUse">
<stop stop-color="white"/>
<stop offset="1" stop-color="white" stop-opacity="0"/>
</linearGradient>
<linearGradient id="paint6_linear_185_6811" x1="64.2835" y1="-2.42373" x2="64.3265" y2="120.791" gradientUnits="userSpaceOnUse">
<stop stop-color="white"/>
<stop offset="1" stop-color="white" stop-opacity="0"/>
</linearGradient>
<linearGradient id="paint7_linear_185_6811" x1="153.67" y1="53.8827" x2="153.738" y2="251.283" gradientUnits="userSpaceOnUse">
<stop stop-color="white"/>
<stop offset="1" stop-color="white" stop-opacity="0"/>
</linearGradient>
<linearGradient id="paint8_linear_185_6811" x1="217.46" y1="158.965" x2="217.502" y2="279.37" gradientUnits="userSpaceOnUse">
<stop stop-color="white"/>
<stop offset="1" stop-color="white" stop-opacity="0"/>
</linearGradient>
<linearGradient id="paint9_linear_185_6811" x1="230.557" y1="194.746" x2="230.584" y2="270.933" gradientUnits="userSpaceOnUse">
<stop stop-color="white"/>
<stop offset="1" stop-color="white" stop-opacity="0"/>
</linearGradient>
<linearGradient id="paint10_linear_185_6811" x1="204.442" y1="131.616" x2="204.494" y2="279.751" gradientUnits="userSpaceOnUse">
<stop stop-color="white"/>
<stop offset="1" stop-color="white" stop-opacity="0"/>
</linearGradient>
<linearGradient id="paint11_linear_185_6811" x1="178.642" y1="88.0809" x2="178.705" y2="269.332" gradientUnits="userSpaceOnUse">
<stop stop-color="white"/>
<stop offset="1" stop-color="white" stop-opacity="0"/>
</linearGradient>
<linearGradient id="paint12_linear_185_6811" x1="165.599" y1="70.0065" x2="165.665" y2="260.103" gradientUnits="userSpaceOnUse">
<stop stop-color="white"/>
<stop offset="1" stop-color="white" stop-opacity="0"/>
</linearGradient>
<linearGradient id="paint13_linear_185_6811" x1="140.849" y1="39.5199" x2="140.919" y2="238.809" gradientUnits="userSpaceOnUse">
<stop stop-color="white"/>
<stop offset="1" stop-color="white" stop-opacity="0"/>
</linearGradient>
<linearGradient id="paint14_linear_185_6811" x1="191.617" y1="108.411" x2="191.676" y2="276.107" gradientUnits="userSpaceOnUse">
<stop stop-color="white"/>
<stop offset="1" stop-color="white" stop-opacity="0"/>
</linearGradient>
</defs>
</svg>
