<svg width="39" height="39" viewBox="0 0 39 39" fill="none" xmlns="http://www.w3.org/2000/svg">
<path d="M19.9171 37.5783C17.5153 37.5783 15.1371 37.1053 12.9181 36.1862C10.6992 35.267 8.68301 33.9199 6.9847 32.2216C5.2864 30.5233 3.93923 28.5071 3.02011 26.2881C2.10099 24.0692 1.62793 21.6909 1.62793 19.2892C1.62793 16.8874 2.10099 14.5092 3.02011 12.2902C3.93923 10.0713 5.2864 8.05508 6.9847 6.35677C8.68301 4.65847 10.6992 3.3113 12.9181 2.39218C15.1371 1.47306 17.5153 1 19.9171 1C24.7677 1 29.4196 2.92689 32.8495 6.35678C36.2794 9.78666 38.2063 14.4386 38.2063 19.2892C38.2063 24.1398 36.2794 28.7917 32.8495 32.2216C29.4196 35.6515 24.7677 37.5783 19.9171 37.5783ZM19.9171 37.5783V16.6764C19.9171 15.2906 20.4676 13.9614 21.4476 12.9815C22.4276 12.0015 23.7567 11.451 25.1426 11.451H26.449M13.3853 21.9019H26.449" stroke="#0873BA" stroke-width="1.39968"/>
</svg>
