<svg width="42" height="42" viewBox="0 0 42 42" fill="none" xmlns="http://www.w3.org/2000/svg">
<path d="M21.1283 38.4142C30.5631 38.4142 38.2116 30.7658 38.2116 21.3309C38.2116 11.896 30.5631 4.24756 21.1283 4.24756C11.6934 4.24756 4.04492 11.896 4.04492 21.3309C4.04492 30.7658 11.6934 38.4142 21.1283 38.4142Z" stroke="#0873BA" stroke-width="1.70833" stroke-linecap="round" stroke-linejoin="round"/>
<path d="M21.1286 21.3323H29.6702C29.6699 23.3085 28.9843 25.2234 27.7304 26.7507C26.4765 28.2781 24.7318 29.3234 22.7935 29.7086C20.8553 30.0938 18.8435 29.795 17.1008 28.8632C15.3582 27.9313 13.9925 26.4241 13.2366 24.5982C12.4806 22.7724 12.3812 20.7409 12.9551 18.85C13.529 16.959 14.7409 15.3256 16.3841 14.2279C18.0274 13.1303 20.0004 12.6364 21.967 12.8303C23.9336 13.0243 25.7721 13.8941 27.1692 15.2917" stroke="#0873BA" stroke-width="1.70833" stroke-linecap="round" stroke-linejoin="round"/>
</svg>
