<svg width="52" height="51" viewBox="0 0 52 51" fill="none" xmlns="http://www.w3.org/2000/svg">
<path d="M33.3703 8.82812H18.2747C13.4039 8.82812 9.45605 12.7766 9.45605 17.6475V32.7417C9.45605 37.6126 13.4046 41.5611 18.2754 41.5611H33.3696C38.2405 41.5611 42.189 37.6126 42.189 32.7417V17.6475C42.189 12.7766 38.2412 8.82812 33.3703 8.82812Z" stroke="#0873BA" stroke-width="1.39968" stroke-miterlimit="10"/>
<path d="M25.8231 33.0944C30.1868 33.0944 33.7243 29.5569 33.7243 25.1932C33.7243 20.8295 30.1868 17.292 25.8231 17.292C21.4594 17.292 17.9219 20.8295 17.9219 25.1932C17.9219 29.5569 21.4594 33.0944 25.8231 33.0944Z" stroke="#0873BA" stroke-width="1.39968" stroke-miterlimit="10"/>
<path d="M35.4156 17.295C36.3505 17.295 37.1085 16.5371 37.1085 15.6021C37.1085 14.6671 36.3505 13.9092 35.4156 13.9092C34.4806 13.9092 33.7227 14.6671 33.7227 15.6021C33.7227 16.5371 34.4806 17.295 35.4156 17.295Z" fill="#0873BA"/>
</svg>
