<svg width="43" height="43" viewBox="0 0 43 43" fill="none" xmlns="http://www.w3.org/2000/svg">
<path d="M40.1107 6.48016C40.1106 6.32575 40.0697 6.1741 39.9921 6.04062C39.9145 5.90713 39.803 5.79656 39.6688 5.72015C39.5346 5.64373 39.3826 5.60419 39.2282 5.60554C39.0738 5.60689 38.9225 5.64908 38.7897 5.72783C37.5577 6.45951 36.2205 6.99766 34.8251 7.32346C33.2998 5.86664 31.2692 5.05767 29.1599 5.06648C28.0142 5.06784 26.8813 5.30707 25.8329 5.76902C24.7845 6.23096 23.8435 6.90556 23.0693 7.7501C22.2952 8.59464 21.7048 9.59073 21.3356 10.6753C20.9664 11.7598 20.8264 12.9092 20.9245 14.0507C15.6359 13.488 10.7834 10.8596 7.42285 6.73735C7.33317 6.62782 7.21824 6.54169 7.08794 6.48636C6.95764 6.43103 6.81586 6.40815 6.67477 6.41967C6.53368 6.4312 6.39749 6.4768 6.27791 6.55255C6.15832 6.6283 6.0589 6.73194 5.98818 6.85457C5.26404 8.12111 4.88234 9.55444 4.88068 11.0134C4.87612 12.6152 5.33949 14.1835 6.21388 15.5256L6.1089 15.4679C5.97201 15.3999 5.81969 15.369 5.66713 15.3782C5.51456 15.3874 5.36707 15.4364 5.23935 15.5203C5.10565 15.6067 4.99594 15.7254 4.92039 15.8655C4.84484 16.0056 4.80591 16.1625 4.8072 16.3217C4.8002 16.5293 4.81303 16.7352 4.84569 16.9393C4.92925 18.0942 5.25579 19.2185 5.80392 20.2384C6.35206 21.2584 7.10943 22.1512 8.02647 22.8582C7.91462 22.8911 7.81048 22.9461 7.72018 23.0198C7.62987 23.0936 7.55522 23.1846 7.50062 23.2877C7.44601 23.3907 7.41255 23.5036 7.4022 23.6197C7.39185 23.7358 7.40482 23.8529 7.44035 23.9639C7.84399 25.2244 8.54593 26.3689 9.48653 27.3C10.4271 28.2312 11.5786 28.9216 12.8431 29.3125C10.2615 30.7575 7.28833 31.3474 4.35055 30.9973C4.15369 30.9727 3.9543 31.0157 3.78511 31.1193C3.61592 31.223 3.48698 31.381 3.41944 31.5676C3.3519 31.7541 3.34978 31.9581 3.41342 32.146C3.47706 32.3339 3.60269 32.4946 3.76969 32.6017C7.28533 34.8657 11.3787 36.0689 15.5603 36.0677C20.3037 36.1198 24.9314 34.6031 28.7238 31.7536C32.5162 28.904 35.2609 24.8813 36.531 20.3108C37.1241 18.3215 37.4268 16.2552 37.4303 14.1784C37.4303 13.9685 37.4285 13.7515 37.425 13.5276C38.335 12.6023 39.0434 11.4986 39.5056 10.286C39.9679 9.07334 40.1739 7.77635 40.1107 6.48016ZM35.8696 12.6632C35.7262 12.8334 35.653 13.0517 35.6649 13.2739C35.7594 15.4855 35.4851 17.6975 34.8531 19.8191C33.7236 24.0462 31.2087 27.7722 27.7109 30.4009C24.2132 33.0295 19.9347 34.4088 15.5603 34.3181C12.8904 34.3182 10.2475 33.7846 7.78677 32.7487C10.6786 32.4275 13.422 31.2999 15.7037 29.4944C15.8457 29.3828 15.9496 29.23 16.0013 29.057C16.053 28.884 16.0498 28.6993 15.9923 28.5281C15.9348 28.3569 15.8258 28.2078 15.6801 28.101C15.5345 27.9943 15.3594 27.9353 15.1788 27.932C14.059 27.9138 12.963 27.6062 11.9972 27.039C11.0315 26.4718 10.2289 25.6644 9.66759 24.6953C10.4112 24.697 11.1495 24.5955 11.8616 24.3908C12.0493 24.3358 12.2131 24.2195 12.3269 24.0605C12.4408 23.9015 12.498 23.7089 12.4896 23.5135C12.4811 23.3181 12.4074 23.1312 12.2803 22.9826C12.1531 22.834 11.9798 22.7323 11.7881 22.6937C10.5361 22.4422 9.3861 21.8271 8.48203 20.9252C7.57796 20.0233 6.96001 18.8748 6.70552 17.6234C7.44843 17.8648 8.22194 17.9991 9.00274 18.0223C9.1953 18.0376 9.38709 17.9846 9.54448 17.8726C9.70188 17.7606 9.81484 17.5968 9.86355 17.4099C9.9207 17.229 9.91747 17.0344 9.85435 16.8554C9.79124 16.6765 9.67165 16.5229 9.51363 16.4179C8.62395 15.8249 7.89498 15.0209 7.39185 14.0775C6.88871 13.1341 6.62706 12.0808 6.63028 11.0116C6.63028 10.289 6.74751 9.5717 6.9802 8.88936C10.8597 13.0772 16.2208 15.5851 21.9218 15.879C22.058 15.8936 22.1957 15.8724 22.3212 15.8174C22.4467 15.7625 22.5557 15.6758 22.6374 15.5658C22.7242 15.4619 22.7856 15.3392 22.8169 15.2074C22.8481 15.0756 22.8484 14.9384 22.8176 14.8065C22.7015 14.3241 22.6427 13.8296 22.6426 13.3333C22.6445 11.6056 23.3314 9.94904 24.5528 8.72699C25.7742 7.50494 27.4304 6.81711 29.1582 6.81433C30.0481 6.8118 30.929 6.9938 31.745 7.34884C32.5611 7.70388 33.2947 8.22426 33.8996 8.87711C34.0013 8.98533 34.1288 9.06588 34.2702 9.11118C34.4116 9.15648 34.5623 9.16504 34.7079 9.13605C35.9492 8.8906 37.1564 8.49643 38.3033 7.96207C38.0052 9.74545 37.1531 11.3897 35.8679 12.6615" fill="#0873BA"/>
</svg>
