<svg width="48" height="47" viewBox="0 0 48 47" fill="none" xmlns="http://www.w3.org/2000/svg">
<path d="M42.2613 13.9924C42.0403 13.1691 41.6067 12.4184 41.0039 11.8156C40.4012 11.2129 39.6505 10.7793 38.8272 10.5583C36.578 9.68932 14.7877 9.26358 8.46578 10.5826C7.64237 10.8036 6.8916 11.2374 6.28884 11.8403C5.68607 12.4433 5.25252 13.1942 5.0317 14.0176C4.01596 18.4723 3.93917 28.1029 5.05697 32.6577C5.27794 33.481 5.71156 34.2317 6.31431 34.8344C6.91707 35.4372 7.66776 35.8708 8.49105 36.0918C12.9457 37.1172 34.1237 37.2611 38.8525 36.0918C39.6758 35.8708 40.4265 35.4372 41.0292 34.8344C41.632 34.2317 42.0656 33.481 42.2866 32.6577C43.3694 27.8045 43.4462 18.7707 42.2613 13.9924Z" stroke="#0873BA" stroke-width="1.39968" stroke-linecap="round" stroke-linejoin="round"/>
<path d="M30.0686 23.3228L19.9141 17.4995V29.146L30.0686 23.3228Z" stroke="#0873BA" stroke-width="1.39968" stroke-linecap="round" stroke-linejoin="round"/>
</svg>
